# xmcd
#
# Track frame offsets: 
#        150
#        20498
#        43513
#        68743
#        89320
#        113250
#        136325
#        159993
#        181988
#        201103
#
# Disc length: 3014 seconds
#
# Revision: 0
# Processed by: cddbd v1.5.2PL0 Copyright (c) Steve Scherf et al.
# Submitted via: ExactAudioCopy v0.99pb5
#
DISCID=760bc40a
DTITLE=Rush  - Hold Your Fire - Warner Bros. 13483  (SHM)  
DYEAR=1900
DGENRE=
TTITLE0=Force Ten
TTITLE1=Time Stand Still
TTITLE2=Open Secrets
TTITLE3=Second Nature
TTITLE4=Prime Mover
TTITLE5=Lock And Key
TTITLE6=Mission
TTITLE7=Turn The Page
TTITLE8=Tai Shan
TTITLE9=High Water
EXTD=
EXTT0=
EXTT1=
EXTT2=
EXTT3=
EXTT4=
EXTT5=
EXTT6=
EXTT7=
EXTT8=
EXTT9=
PLAYORDER=
